<?xml version="1.0" encoding="UTF-8"?>
<svg width="60px" height="42px" viewBox="0 0 60 42" version="1.1" xmlns="http://www.w3.org/2000/svg" xmlns:xlink="http://www.w3.org/1999/xlink">
    <g id="Page-1" stroke="none" stroke-width="1" fill="none" fill-rule="evenodd" stroke-linecap="round" stroke-linejoin="round">
        <g id="Desktop-HD-dashboard" transform="translate(-67.000000, -160.000000)" stroke="#FFFEFA" stroke-width="2">
            <g id="dashboard" transform="translate(0.000000, 128.000000)">
                <g id="Group-23" transform="translate(68.000000, 33.000000)">
                    <path d="M32,29 C32,31.209 30.208,33 28,33 C25.792,33 24,31.209 24,29 C24,26.791 25.792,25 28,25 C30.208,25 32,26.791 32,29 Z" id="Stroke-1"></path>
                    <path d="M30.8262,26.1738 L43.0002,13.9998" id="Stroke-3"></path>
                    <path d="M4.0435,30.2607 L9.0865,30.2607" id="Stroke-5"></path>
                    <path d="M51.9561,30.2637 L46.9131,30.2607" id="Stroke-7"></path>
                    <path d="M50.1318,19.834 L45.4718,21.762" id="Stroke-9"></path>
                    <path d="M37.167,6.8682 L35.237,11.5272" id="Stroke-11"></path>
                    <path d="M28,5.043 L28,10.088" id="Stroke-13"></path>
                    <path d="M18.834,6.8682 L20.763,11.5272" id="Stroke-15"></path>
                    <path d="M11.062,12.0596 L14.625,15.6276" id="Stroke-17"></path>
                    <path d="M5.8682,19.832 L10.5272,21.762" id="Stroke-19"></path>
                    <path d="M29,0 C12.983,0 0,12.985 0,29 L0,40 L58,40 L58,29 C58,12.985 45.017,0 29,0 Z" id="Stroke-21"></path>
                </g>
            </g>
        </g>
    </g>
</svg>