<svg version="1.1" id="Capa_1" xmlns="http://www.w3.org/2000/svg" xmlns:xlink="http://www.w3.org/1999/xlink" x="0px" y="0px"
	 width="26px" height="26px" viewBox="0 0 124.065 124.065" style="enable-background:new 0 0 124.065 124.065;"
	 xml:space="preserve">
<g>
	<path d="M12.532,77.057c7.7,10.2,17.7,18.4,28.1,25.801c0,0,12.4,8.6,18.1,12.6c2.1,1.4,4.799,1.4,6.799,0c5.7-4,18-12.6,18-12.6
		c10.4-7.4,20.2-15.5,28-25.801c6.601-8.8,11.5-19.2,12.4-30.2c1.6-20-11.3-39.2-32.7-39.2c-12.5,0-23.5,6.8-29.1,16.9
		c-5.8-10.2-16.7-17-29.2-17c-21.3,0-34.4,19.2-32.8,39.2C1.032,57.757,5.832,68.257,12.532,77.057z"/>
</g>
</svg>
