<?xml version="1.0" encoding="UTF-8"?>
<svg width="60px" height="60px" viewBox="0 0 60 60" version="1.1" xmlns="http://www.w3.org/2000/svg" xmlns:xlink="http://www.w3.org/1999/xlink">
    <g id="Page-1" stroke="none" stroke-width="1" fill="none" fill-rule="evenodd" stroke-linecap="round" stroke-linejoin="round">
        <g id="Desktop-HD-dashboard" transform="translate(-70.000000, -274.000000)" stroke="#FFFEFA" stroke-width="2">
            <g id="museums" transform="translate(0.000000, 253.000000)">
                <g id="Group-18" transform="translate(71.000000, 22.000000)">
                    <polygon id="Stroke-1" points="4 52 54 52 54 46 4 46"></polygon>
                    <polygon id="Stroke-2" points="8 46 50 46 50 20 8 20"></polygon>
                    <g id="Group-7" transform="translate(0.000000, 51.000000)">
                        <path d="M58,7 L0,7" id="Stroke-3"></path>
                        <path d="M58,1 L0,1" id="Stroke-5"></path>
                    </g>
                    <path d="M12,20 L12,46" id="Stroke-8"></path>
                    <path d="M24,20 L24,46" id="Stroke-9"></path>
                    <path d="M20,20 L20,46" id="Stroke-10"></path>
                    <path d="M34,20 L34,46" id="Stroke-11"></path>
                    <path d="M38,20 L38,46" id="Stroke-12"></path>
                    <path d="M46,20 L46,46" id="Stroke-13"></path>
                    <g id="Group-17" transform="translate(2.000000, 0.000000)">
                        <polygon id="Stroke-14" points="0 20 54 20 54 14 0 14"></polygon>
                        <polygon id="Stroke-16" points="54 14 0 14 27 0"></polygon>
                    </g>
                </g>
            </g>
        </g>
    </g>
</svg>