<?xml version="1.0" encoding="UTF-8"?>
<svg width="60px" height="60px" viewBox="0 0 60 60" version="1.1" xmlns="http://www.w3.org/2000/svg" xmlns:xlink="http://www.w3.org/1999/xlink">
    <g id="Page-1" stroke="none" stroke-width="1" fill="none" fill-rule="evenodd" stroke-linejoin="round">
        <g id="Desktop-HD-dashboard" transform="translate(-69.000000, -402.000000)" stroke="#FFFEFA" stroke-width="2">
            <g id="reviews" transform="translate(0.000000, 378.000000)">
                <g id="Group-5" transform="translate(70.000000, 25.000000)">
                    <path d="M24,43 C21.374,42.852 18.545,42.267 16.391,41.609 L2,48 L7.565,36.565 C2.701,32.675 0,27.43 0,21.435 C0,9.596 11.491,0 26,0 C40.51,0 52.956,9.597 52.956,21.435 C52.956,22.751 52.809,24.04 52.525,25.29" id="Stroke-1"></path>
                    <polygon id="Stroke-3" points="44 30 49 40 58 40 50.435 46.652 54 58 44.13 51.073 34.043 58 37.826 46.652 30 40 39 40"></polygon>
                </g>
            </g>
        </g>
    </g>
</svg>