<?xml version="1.0" encoding="UTF-8"?>
<svg width="60px" height="53px" viewBox="0 0 60 53" version="1.1" xmlns="http://www.w3.org/2000/svg" xmlns:xlink="http://www.w3.org/1999/xlink">
    <g id="Page-1" stroke="none" stroke-width="1" fill="none" fill-rule="evenodd" stroke-linejoin="round">
        <g id="Desktop-HD-dashboard" transform="translate(-70.000000, -531.000000)" stroke="#FFFEFA" stroke-width="2">
            <g id="users" transform="translate(0.000000, 503.000000)">
                <g id="Group" transform="translate(71.000000, 28.999900)">
                    <path d="M22.688,50.255 L45.391,50.255 C45.391,50.255 45.391,41.848 44.196,38.246 C43.155,35.108 35.893,33.23 28,30.255 L28,24.255 C28,24.255 31.521,22.215 31.521,16.212 C33.494,16.212 33.494,11.168 31.521,11.168 C31.521,10.578 33.611,6.935 32.782,3.603 C31.588,-1.201 17.585,-1.201 16.391,3.603 C10.418,2.401 13.87,10.363 13.87,11.168 C11.895,11.168 11.895,16.212 13.87,16.212 C13.87,22.215 18,24.255 18,24.255 L18,30.255 C10.994,32.916 2.233,35.108 1.194,38.246 C-1.88293825e-13,41.848 -1.88293825e-13,50.255 -1.88293825e-13,50.255 L22.688,50.255 Z" id="Stroke-1"></path>
                    <path d="M52.9561,50.255 L58.0001,50.255 C58.0001,50.255 58.0001,41.848 56.8051,38.246 C55.7641,35.108 47.8931,32.23 40.0001,29.255 L40.0001,25.255 C40.0001,25.255 44.1301,23.476 44.1301,17.472 C46.1021,17.472 46.1021,12.429 44.1301,12.429 C44.1301,11.838 46.2201,7.734 45.3911,4.4 C44.8321,2.153 40.3481,-1.441 36.5651,1.081" id="Stroke-3" stroke-linecap="round"></path>
                </g>
            </g>
        </g>
    </g>
</svg>